<?xml version="1.0" encoding="UTF-8" standalone="no"?>
<!-- Created with Inkscape (http://www.inkscape.org/) -->

<svg
   xmlns:dc="http://purl.org/dc/elements/1.1/"
   xmlns:cc="http://creativecommons.org/ns#"
   xmlns:rdf="http://www.w3.org/1999/02/22-rdf-syntax-ns#"
   xmlns:svg="http://www.w3.org/2000/svg"
   xmlns="http://www.w3.org/2000/svg"
   xmlns:xlink="http://www.w3.org/1999/xlink"
   xmlns:sodipodi="http://sodipodi.sourceforge.net/DTD/sodipodi-0.dtd"
   xmlns:inkscape="http://www.inkscape.org/namespaces/inkscape"
   width="86"
   height="86"
   id="svg2"
   version="1.1"
   inkscape:version="0.48.2 r9819"
   sodipodi:docname="tweetian-sailfish.svg"
   inkscape:export-filename="C:\Users\Stephan\Desktop\Tweetian.png"
   inkscape:export-xdpi="90"
   inkscape:export-ydpi="90">
  <defs
     id="defs4">
    <linearGradient
       id="linearGradient3789-6">
      <stop
         style="stop-color:#9ae4e8;stop-opacity:1;"
         offset="0"
         id="stop3791-0" />
      <stop
         style="stop-color:#60a8c0;stop-opacity:1;"
         offset="1"
         id="stop3793-4" />
    </linearGradient>
    <linearGradient
       y2="0"
       x2="86"
       y1="74"
       x1="12"
       gradientTransform="matrix(-1,0,0,-1,86,90)"
       gradientUnits="userSpaceOnUse"
       id="linearGradient3003"
       xlink:href="#linearGradient3789-6"
       inkscape:collect="always" />
  </defs>
  <sodipodi:namedview
     id="base"
     pagecolor="#ffffff"
     bordercolor="#666666"
     borderopacity="1.0"
     inkscape:pageopacity="0.0"
     inkscape:pageshadow="2"
     inkscape:zoom="5.656854"
     inkscape:cx="25.229098"
     inkscape:cy="78.044335"
     inkscape:document-units="px"
     inkscape:current-layer="layer2"
     showgrid="true"
     inkscape:window-width="2560"
     inkscape:window-height="1388"
     inkscape:window-x="-8"
     inkscape:window-y="-8"
     inkscape:window-maximized="1"
     inkscape:snap-bbox="true"
     inkscape:snap-global="true">
    <inkscape:grid
       type="xygrid"
       id="grid2985"
       empspacing="5"
       visible="true"
       enabled="true"
       snapvisiblegridlinesonly="true" />
  </sodipodi:namedview>
  <metadata
     id="metadata7">
    <rdf:RDF>
      <cc:Work
         rdf:about="">
        <dc:format>image/svg+xml</dc:format>
        <dc:type
           rdf:resource="http://purl.org/dc/dcmitype/StillImage" />
        <dc:title></dc:title>
      </cc:Work>
    </rdf:RDF>
  </metadata>
  <g
     inkscape:groupmode="layer"
     id="layer2"
     inkscape:label="Ebene"
     style="display:inline"
     transform="translate(0,-4)">
    <path
       inkscape:connector-curvature="0"
       style="fill:url(#linearGradient3003);fill-opacity:1;display:inline"
       id="path13"
       d="m 0.301,88.277 c 0,0.786 0.637,1.423 1.423,1.423 0,0 40.641,0 41.276,0 C 66.583,89.7 85.7,70.583 85.7,47 85.7,23.418 66.583,4.3 43,4.3 19.417,4.3 0.3,23.418 0.3,47 c 0,0.636 0.001,41.277 0.001,41.277 z" />
    <g
       transform="matrix(1.0256575,0,0,1.0256575,-6.2310472,-2.2315484)"
       id="g19">
      <path
         style="fill:#231f20"
         inkscape:connector-curvature="0"
         d="M 79.199,46.054 C 68.504,43.137 68.504,43.137 68.504,43.137 c 0,0 -1.223,-7.916 -9.271,-10.92 0,0 0,0 -1.201,-4.913 -2.25,5.167 -2.25,5.167 -2.25,5.167 0,0 0,0 -3.832,-5.5 0.416,5.417 0.416,5.417 0.416,5.417 0,0 -4.377,-4.077 -4.366,-4.512 2.115,6.844 -1.751,14.344 -1.751,14.344 0,0 0,0 -4.718,-3.083 -5.6,-3.302 -19.833,-8.667 -19.833,-8.667 0,0 3.01,6.185 8.521,9.308 -2.253,0.179 -8.854,-0.975 -8.854,-0.975 0,0 5.464,5.972 12.034,7.444 -3.045,0.112 -10.034,1.806 -10.034,1.806 0,0 7.702,3.862 13.102,3.528 -11.352,4.723 -11.018,6.223 2.052,5.041 C 26.962,66.975 16.8,57.527 16.8,57.527 c 0,0 8.148,12.443 23.459,11.445 10.139,-0.301 24.528,-4.787 28.377,-19.578"
         id="path21" />
      <line
         style="fill:none"
         x1="79.198997"
         y1="46.054001"
         x2="68.503998"
         y2="43.137001"
         id="line23" />
      <polygon
         style="fill:#f4eb1f"
         points="64.531,50.721 68.504,43.137 79.199,46.054 "
         id="polygon25" />
      <polygon
         style="fill:#ffffff"
         points="63.949,39.441 63.121,40.911 59.781,37.97 "
         id="polygon27" />
    </g>
  </g>
</svg>
