<?xml version="1.0" encoding="UTF-8" standalone="no"?>
<!-- Generator: Adobe Illustrator 15.0.0, SVG Export Plug-In . SVG Version: 6.00 Build 0)  -->

<svg
   xmlns:dc="http://purl.org/dc/elements/1.1/"
   xmlns:cc="http://creativecommons.org/ns#"
   xmlns:rdf="http://www.w3.org/1999/02/22-rdf-syntax-ns#"
   xmlns:svg="http://www.w3.org/2000/svg"
   xmlns="http://www.w3.org/2000/svg"
   xmlns:sodipodi="http://sodipodi.sourceforge.net/DTD/sodipodi-0.dtd"
   xmlns:inkscape="http://www.inkscape.org/namespaces/inkscape"
   version="1.1"
   x="0px"
   y="0px"
   width="40"
   height="40"
   viewBox="0 0 40 40"
   enable-background="new 0 0 30 30"
   xml:space="preserve"
   id="svg2"
   inkscape:version="0.48.2 r9819"
   sodipodi:docname="me.svg"
   inkscape:export-filename="C:\Users\Stephan\Desktop\icons\me.png"
   inkscape:export-xdpi="90"
   inkscape:export-ydpi="90"><metadata
   id="metadata19"><rdf:RDF><cc:Work
       rdf:about=""><dc:format>image/svg+xml</dc:format><dc:type
         rdf:resource="http://purl.org/dc/dcmitype/StillImage" /><dc:title></dc:title></cc:Work></rdf:RDF></metadata><defs
   id="defs17" /><sodipodi:namedview
   pagecolor="#0000ff"
   bordercolor="#666666"
   borderopacity="1"
   objecttolerance="10"
   gridtolerance="10"
   guidetolerance="10"
   inkscape:pageopacity="0"
   inkscape:pageshadow="2"
   inkscape:window-width="2560"
   inkscape:window-height="1388"
   id="namedview15"
   showgrid="true"
   inkscape:snap-bbox="true"
   inkscape:snap-global="true"
   inkscape:zoom="11.313709"
   inkscape:cx="3.140583"
   inkscape:cy="18.985123"
   inkscape:window-x="-8"
   inkscape:window-y="-8"
   inkscape:window-maximized="1"
   inkscape:current-layer="svg2"><inkscape:grid
     type="xygrid"
     id="grid3002"
     empspacing="5"
     visible="true"
     enabled="true"
     snapvisiblegridlinesonly="true" /></sodipodi:namedview>


<rect
   style="opacity:0.75;fill:#000000;fill-opacity:1;stroke:none"
   id="rect3780"
   width="0"
   height="0"
   x="0"
   y="10" /><path
   style="fill:#ffffff;fill-opacity:1;stroke:none;display:inline"
   d="m 19.326215,5.2373727 c -1.10171,0.013119 -2.265702,0.2359421 -3.180718,0.8924481 -0.338156,0.2792235 -0.65212,0.5997143 -0.94306,0.8847303 -0.245066,0.2344187 -0.47553,0.5151412 -0.689853,0.8071613 -0.138114,0.2451471 -0.304686,0.5095635 -0.438925,0.7653849 -0.99411,1.9508337 -0.951797,4.7292807 -0.635367,6.8370797 0.37787,2.452257 0.06091,2.442953 1.20205,4.64869 0.779098,1.20268 1.623325,2.401967 4.087127,3.263046 0.727649,0.236031 1.36777,0.271877 2.403663,-0.03255 2.561433,-0.95188 3.55489,-2.555872 4.062471,-3.230506 0.897736,-1.718767 0.848817,-2.771087 1.30204,-4.648685 0.46228,-2.017331 0.290555,-3.31037 -0.268808,-5.343561 C 25.789931,8.2441505 24.476614,6.6331839 22.728482,5.8946946 21.660657,5.4308966 20.487719,5.2221509 19.326215,5.2373727 z M 15.16411,7.0634242 c 0.0078,-0.036438 0.01618,0.0063 0,0 z"
   id="path3773-1"
   inkscape:connector-curvature="0"
   sodipodi:nodetypes="cccccccccccccccc" /><path
   style="opacity:0.5;fill:#ffffff;fill-opacity:1;stroke:#ffffff;stroke-width:0.91428572;stroke-linecap:round;stroke-linejoin:round;stroke-opacity:1"
   d="m 16.342857,20.591973 0,2.742858 c 0,4.517009 -8.8505624,4.656663 -11.8857141,6.4 l 0,4.571428 31.0857141,0 0,-4.571428 c -3.345566,-1.96892 -11.885714,-1.828572 -11.885714,-6.4 l 0,-2.742858 z"
   id="rect3814"
   inkscape:connector-curvature="0"
   sodipodi:nodetypes="csccccscc" /><path
   style="opacity:0;fill:#ffffff;fill-opacity:1;stroke:none;display:inline"
   d="m 24.653357,14.936543 c -0.122822,1.161319 0.0183,2.1339 0.554913,2.203343 0.536615,0.06944 1.139575,-0.815098 1.388336,-1.951876 0.291514,-1.332111 0.410778,-2.943848 -0.510432,-2.623891 -0.513535,0.178361 -1.309995,1.211107 -1.432817,2.372424 z"
   id="path3776-1-1"
   inkscape:connector-curvature="0"
   sodipodi:nodetypes="sssss" /><path
   style="opacity:0;fill:#ffffff;fill-opacity:1;stroke:none;display:inline"
   d="m 15.271489,14.581462 c 0.114352,1.163638 -0.03385,2.133392 -0.570932,2.192341 -0.537083,0.05894 -1.133555,-0.83731 -1.374015,-1.978864 -0.281781,-1.337717 -0.134259,-2.861097 0.553248,-2.661751 0.522381,0.151494 1.277349,1.284637 1.391699,2.448274 z"
   id="path3776-7"
   inkscape:connector-curvature="0"
   sodipodi:nodetypes="sssss" /></svg>